<svg xmlns="http://www.w3.org/2000/svg" viewBox="0 0 60.9 48.96"><path d="M0,42.65V14.23a.71.71,0,0,0,.1-.14A7.35,7.35,0,0,1,7.64,7.94c2.59,0,5.18,0,7.78,0h.67c0-.29,0-.5,0-.72C16.21,2.8,19.33,0,23.76,0S32.9,0,37.48,0a7,7,0,0,1,7,5.14,26.23,26.23,0,0,1,.41,2.8h.59c2.66,0,5.37,0,8,0a7.32,7.32,0,0,1,7.42,7.22v.24c0,8.83,0,17.47,0,26.29a7.28,7.28,0,0,1-5.34,7L54.49,49H6.43a.85.85,0,0,0-.26-.11,6.94,6.94,0,0,1-5.1-3.47A19.14,19.14,0,0,1,0,42.65ZM30.46,13.77a13.71,13.71,0,1,0,.09,0ZM30.4,34.85a7.32,7.32,0,1,1,7.36-7.29,7.32,7.32,0,0,1-7.36,7.29Z" transform="translate(-0.01 0.01)" fill="currentColor" fill-rule="evenodd"/></svg>