<svg xmlns="http://www.w3.org/2000/svg" viewBox="0 0 82.92 72.35"><path d="M9.33,72.33A9.85,9.85,0,0,1,0,63Q0,42,0,21C0,14.56,4.09,10.5,10.62,10.4c4.54-.07,14.69,0,15.32.09,0,1.82-.08,3.36,0,5a4.94,4.94,0,0,0,5,4.86H51.83A4.93,4.93,0,0,0,57,15.67v-.33c0-1.68,0-3.19,0-4.75,6,0,12-.27,17.74.09,4.52.27,8,4.64,8.18,9.16.06,1.62.05,41.86,0,43.36a9.76,9.76,0,0,1-9.42,9.13C70.38,72.37,14.18,72.38,9.33,72.33Zm21.08-24a.31.31,0,0,0-.38-.24.32.32,0,1,0,.38.41c.34-.45.71-.88,1.05-1.33a11.9,11.9,0,0,0,1.9-10.4,7.63,7.63,0,0,0-8.66-5.62,8,8,0,0,0-6.77,7.67,12.36,12.36,0,0,0,3.59,9.88c-1.65.47-3.12.77-4.49,1.3a25.1,25.1,0,0,0-4,2c-3.07,1.9-3.17,4.25-2.63,7.42a3.31,3.31,0,0,0,3.4,2.75c8,0,16,0,24,0A4.06,4.06,0,0,0,40.22,61c2.43-2.25,1.9-6.81-1.3-8.8-2.55-1.59-5.51-2.55-8.51-3.89Zm39.52-1.71c1.88,0,2.76-.94,2.73-2.61s-.94-2.56-2.79-2.57c-5,0-10.07,0-15.11,0a2.61,2.61,0,0,0-2.89,2.3,1.94,1.94,0,0,0,0,.24c0,1.6,1.1,2.64,3,2.66,2.46,0,12.53,0,15.11,0Zm0-11.13c1.88,0,2.76-.93,2.73-2.61s-.94-2.56-2.79-2.57q-7.56-.06-15.11,0a2.62,2.62,0,0,0-2.89,2.3,2.11,2.11,0,0,0,0,.25c0,1.59,1.1,2.63,3,2.65,2.46,0,12.53,0,15.11,0ZM54.65,51.9c-1.7,0-2.69.74-2.76,2.38a2.36,2.36,0,0,0,2,2.68,2.07,2.07,0,0,0,.5,0c5.33,0,10.68,0,16-.09,1.6,0,2.33-1.07,2.25-2.64a2.22,2.22,0,0,0-2.06-2.36,2.64,2.64,0,0,0-.49,0c-2.52,0-12.83.05-15.46,0Zm-21-36.51c-1.69,0-2.53-.73-2.56-2.28-.07-3.52,0-7.13,0-10.65C31.15.83,32,0,33.74,0,39,.07,44.17.06,49.39,0c1.79,0,2.46.89,2.45,2.56,0,3.4,0,6.88,0,10.27,0,1.67-.7,2.52-2.5,2.53-15.66,0,0,0-15.65,0Z" transform="translate(0 -0.01)" fill="currentColor" fill-rule="evenodd"/></svg>