<svg xmlns="http://www.w3.org/2000/svg" viewBox="0 0 49.19 53.82"><path d="M29.64,53.8c-.52-.11-1.05-.21-1.57-.35a10.44,10.44,0,0,1-4.75-2.76Q15.07,42.46,6.83,34.2a3.63,3.63,0,0,1-.2-5.11,3.72,3.72,0,0,1,1.11-.82,6.07,6.07,0,0,1,7.07.35c1.13.8,2.22,1.66,3.33,2.49l.58.41V12a4.75,4.75,0,0,1,2.66-4.54,4.65,4.65,0,0,1,6.67,3.75c.11,2.45.06,4.9.08,7.35v.7a4.76,4.76,0,0,1,6.45,1.89,4.51,4.51,0,0,1,.29.63A4.71,4.71,0,0,1,39,21.29,4.65,4.65,0,0,1,41.83,24a19.39,19.39,0,0,1,2.39-.59,4.62,4.62,0,0,1,4.88,4,13,13,0,0,1,.08,1.41c0,3.92,0,7.84,0,11.76a12.86,12.86,0,0,1-3.54,9.21A12.7,12.7,0,0,1,38,53.7a2.79,2.79,0,0,0-.39.1ZM21.12,22.65V33.9a1.19,1.19,0,0,1-1.19,1.19,1.23,1.23,0,0,1-.76-.26c-.33-.22-.64-.48-1-.72-1.59-1.19-3.16-2.38-4.75-3.56a3.79,3.79,0,0,0-4.41-.31c-1.15.69-1.31,1.55-.33,2.52q7,7,14,14c.88.88,1.74,1.78,2.66,2.62a7.46,7.46,0,0,0,4.87,2.06c2,.07,4,.06,6,.05A10.25,10.25,0,0,0,42,49.77a9.81,9.81,0,0,0,4.76-8c.18-4.53.07-9.07.06-13.61a2.28,2.28,0,0,0-2.19-2.38h-.08a2.37,2.37,0,0,0-2.37,2.37h0c0,.39,0,.77,0,1.16a1.17,1.17,0,0,1-1.22,1.13,1,1,0,0,1-.35-.07A1.29,1.29,0,0,1,39.81,29c0-1.19,0-2.38-.07-3.57a2.25,2.25,0,0,0-2.47-2,2.57,2.57,0,0,0-.4.08A2.35,2.35,0,0,0,35.14,26c0,1.1,0,2.21,0,3.31a1.11,1.11,0,0,1-1.44,1.1,1.17,1.17,0,0,1-.88-1.26c0-1.82,0-3.64,0-5.47a2.43,2.43,0,0,0-1.14-2.22,2.27,2.27,0,0,0-3.48,1.8c-.07,1.84,0,3.68,0,5.52a4.11,4.11,0,0,1-.07.78,1.05,1.05,0,0,1-1,.87,1.2,1.2,0,0,1-1.34-1.05,1.15,1.15,0,0,1,0-.37V12.14c0-.19,0-.38,0-.57A2.33,2.33,0,0,0,23.3,9.38a2,2,0,0,0-.43.07,2.28,2.28,0,0,0-1.74,2.27C21.11,15.36,21.12,19,21.12,22.65ZM4,7C5,7.94,5.78,8.7,6.53,9.53A1.81,1.81,0,0,1,7,10.63a1.12,1.12,0,0,1-1.18,1.06,1.16,1.16,0,0,1-.51-.15,2.63,2.63,0,0,1-.49-.39L.48,6.81A1.2,1.2,0,0,1,.24,5.13a1.89,1.89,0,0,1,.2-.2L4.9.47A1.23,1.23,0,0,1,6.32.09,1.18,1.18,0,0,1,7,1.62a1.23,1.23,0,0,1-.35.47C6,2.8,5.24,3.48,4.54,4.17l-.42.45.62,0h10a3.44,3.44,0,0,1,.78.08,1.15,1.15,0,0,1,.86,1.37,1.17,1.17,0,0,1-.74.83,3,3,0,0,1-.78.1H4ZM42.68,4.51c-.81-.8-1.63-1.58-2.42-2.4A1.17,1.17,0,0,1,40.08.44a1.26,1.26,0,0,1,.2-.2,1.09,1.09,0,0,1,1.49.08C43.38,1.88,45,3.46,46.53,5.06a1.13,1.13,0,0,1,0,1.6l-.06,0Q44.19,9,41.86,11.31a1.18,1.18,0,0,1-1.66.09,1.16,1.16,0,0,1-.09-1.66l.11-.11C41,8.79,41.88,8,42.84,7h-11a1.23,1.23,0,0,1-1.41-1s0-.09,0-.14a1.11,1.11,0,0,1,.9-1.17,3.63,3.63,0,0,1,.73-.08H42.63Z" transform="translate(0 0.02)" fill="currentColor" fill-rule="evenodd"/></svg>