<svg xmlns="http://www.w3.org/2000/svg" viewBox="0 0 56.98 74.05"><path d="M0,67.23V6.84a3.09,3.09,0,0,0,.14-.32A7.88,7.88,0,0,1,5.53.39C6,.24,6.39.14,6.83,0H36.21a.75.75,0,0,0,.25.13,8.08,8.08,0,0,1,4.22,2.23c1,1,2,1.93,3.06,2.9l10.54,10a8,8,0,0,1,2.69,6c0,15.1,0,29.86,0,45a7.94,7.94,0,0,1-7.84,7.88c-13.64,0-27.63,0-41.27,0A7.93,7.93,0,0,1,.29,68.18C.2,67.86.09,67.54,0,67.23ZM52.62,21.8H39.55A5,5,0,0,1,34.32,17V4.37H8.58c-2.8,0-4.23,1.43-4.23,4.25V65.44c0,2.82,1.43,4.26,4.23,4.26H48.33c2.86,0,4.28-1.42,4.28-4.27V21.8Zm-2.4-4.35L38.68,6.52V16.57a.82.82,0,0,0,.76.89.89.89,0,0,0,.23,0H50.22ZM16.61,58a5.27,5.27,0,0,0,3.84-1.35A4.92,4.92,0,0,0,21.83,53a5.2,5.2,0,0,0-1.4-3.79,4.93,4.93,0,0,0-3.75-1.46H11.27V63.61h3.2V58Zm-2.13-7.61h2.23a1.63,1.63,0,0,1,1.37.71A3.09,3.09,0,0,1,18.59,53a2.58,2.58,0,0,1-.5,1.74,1.72,1.72,0,0,1-1.41.6h-2.2V50.42Zm13.6,13.19a5.92,5.92,0,0,0,4.55-1.78,7,7,0,0,0,1.65-4.91V54.35a7,7,0,0,0-1.69-4.84,5.76,5.76,0,0,0-4.43-1.76H24V63.61Zm.26-13.19a2.49,2.49,0,0,1,2.11.92,5.56,5.56,0,0,1,.62,3.1v2.75a5.05,5.05,0,0,1-.68,2.92,2.7,2.7,0,0,1-2.26.84h-1V50.42Zm16.42,4.06h-5V50.42h5.58V47.75H36.58V63.61h3.2V57.14h5V54.48Z" transform="translate(0 -0.01)" fill-rule="evenodd" fill="currentColor" /></svg>