<svg xmlns="http://www.w3.org/2000/svg" viewBox="0 0 70.47 58.83"><path d="M0,26.6a6.2,6.2,0,0,1,3.45-2.4Q34.51,12.2,65.57.4A6,6,0,0,1,66.88,0a3,3,0,0,1,3.54,2.32,2.9,2.9,0,0,1,0,.88,21,21,0,0,1-.58,4.1q-3.39,16-6.84,32.1-1.69,8-3.42,15.9l-.06.3c-1.09,4-4,3.6-6.09,2.1C48.36,54,43.29,50.2,38.2,46.5a2.92,2.92,0,0,1-.59-.4c-.16.1-.32.3-.46.4L29.27,54a3.92,3.92,0,0,1-2.77,1.1l.27-4.2c.22-3,.43-6,.65-9a5.62,5.62,0,0,0,.08-1c-.26-1.8.8-2.8,2-3.9,9.3-8.3,18.56-16.6,27.83-25a1.13,1.13,0,0,0,.44-.4,3.4,3.4,0,0,0,.31-.8,3.45,3.45,0,0,0-.87-.3,8.86,8.86,0,0,0-1.69.7L19.11,34a1.35,1.35,0,0,1-1.07.2L2.58,29.4A4.46,4.46,0,0,1,0,27.6v-1Z" transform="translate(-0.01 0.06)" fill="currentColor" fill-rule="evenodd"/></svg>