<svg xmlns="http://www.w3.org/2000/svg" viewBox="0 0 82.49 47"><path d="M82.5,3.4V5a20.3,20.3,0,0,1-1.56,3.5c-2.23,3.4-4.56,6.7-6.87,10-1.47,2.1-3.06,4.1-4.46,6.3a3.21,3.21,0,0,0,.48,4.2,22.2,22.2,0,0,0,1.66,1.7C74,33,76.3,35.1,78.44,37.5c1.74,1.9,3.47,3.8,4.06,6.5v.8a2.88,2.88,0,0,1-2.37,1.9c-.68.1-1.38.1-2.08.2-3.57,0-7.14.1-10.72.1H66.14a10.19,10.19,0,0,1-5.62-3.1c-1.75-1.8-3.39-3.8-5.15-5.6A18,18,0,0,0,53,36.4a1.88,1.88,0,0,0-2.64.36l0,0a6,6,0,0,0-1.5,2.6,40.6,40.6,0,0,0-.66,4.9,2.37,2.37,0,0,1-2.32,2.4,41.53,41.53,0,0,1-6.11.1,20,20,0,0,1-4.23-.4c-5.31-.9-9.69-3.8-13.74-7.1-3.57-3-6.13-6.9-8.76-10.6A139,139,0,0,1,.56,6C-.78,3,.43,2.1,3.06,2.1H13.54c2.25,0,3.17.7,4.15,2.7,2.09,4.3,4.24,8.6,6.46,12.8a13.26,13.26,0,0,0,3.77,4.7c1.7,1.3,3,1,3.64-1a21.82,21.82,0,0,0,.73-4,31.86,31.86,0,0,0-.43-10.4,4.25,4.25,0,0,0-3.31-3.3c-.39-.1-.78-.2-1.33-.3a2.93,2.93,0,0,1,.53-.9A7.89,7.89,0,0,1,30.36.8,22.2,22.2,0,0,1,34.8.1,52.09,52.09,0,0,1,45.24.5,3.15,3.15,0,0,1,48.05,3a18.29,18.29,0,0,1,.34,3.3c0,3.9-.21,7.8-.22,11.7a10.4,10.4,0,0,0,.57,3.5c.55,1.6,1.91,1.8,3.09.7a30.2,30.2,0,0,0,2.88-3.1,65.2,65.2,0,0,0,7.8-14.2c1-2.5,1.5-2.7,3.9-2.7,4.33.1,8.65,0,13-.1A3.7,3.7,0,0,1,82.5,3.4Z" transform="translate(-0.01 0)" fill="currentColor" fill-rule="evenodd"/></svg>