<svg xmlns="http://www.w3.org/2000/svg" viewBox="0 0 68.94 48.64"><path d="M0,29V19.6c.05-.3.11-.6.13-.9C.39,15.1.62,11.5,1,8A7.52,7.52,0,0,1,7.38,1.6c3.25-.3,6.5-.7,9.76-1C21.66.3,26.19,0,30.71,0c5.47,0,10.95,0,16.41.3,4.81.2,9.6.8,14.39,1.3A7.51,7.51,0,0,1,68,8c.38,4.1.76,8.2.91,12.3A132.47,132.47,0,0,1,68,40.7,7.64,7.64,0,0,1,61.51,47c-3.25.4-6.5.8-9.76,1-4.34.3-8.69.6-13,.6q-8.44.15-16.88-.3C17,48.1,12.2,47.5,7.38,47a7.32,7.32,0,0,1-6.27-5.6C.69,38.7.52,35.9.27,33.2.15,31.8.08,30.4,0,29Zm45.92-4.7c-5.75-3.8-11.4-7.6-17.12-11.4V35.7C34.53,31.9,40.16,28.1,45.91,24.3Z" transform="translate(0.01 0)" fill="currentColor" fill-rule="evenodd"/></svg>