<svg
 xmlns="http://www.w3.org/2000/svg"
 xmlns:xlink="http://www.w3.org/1999/xlink"
 width="106px" height="105px">
<path fill-rule="evenodd"  opacity="0.031" fill="rgb(0, 0, 0)"
 d="M98.063,74.938 C94.084,74.938 90.859,71.713 90.859,67.734 C90.859,63.756 94.084,60.531 98.063,60.531 C102.041,60.531 105.266,63.756 105.266,67.734 C105.266,71.713 102.041,74.938 98.063,74.938 ZM98.063,44.937 C94.084,44.937 90.859,41.713 90.859,37.734 C90.859,33.756 94.084,30.531 98.063,30.531 C102.041,30.531 105.266,33.756 105.266,37.734 C105.266,41.713 102.041,44.937 98.063,44.937 ZM98.063,14.938 C94.084,14.938 90.859,11.713 90.859,7.734 C90.859,3.756 94.084,0.531 98.063,0.531 C102.041,0.531 105.266,3.756 105.266,7.734 C105.266,11.713 102.041,14.938 98.063,14.938 ZM68.062,104.938 C64.084,104.938 60.859,101.713 60.859,97.734 C60.859,93.756 64.084,90.531 68.062,90.531 C72.041,90.531 75.266,93.756 75.266,97.734 C75.266,101.713 72.041,104.938 68.062,104.938 ZM68.062,74.938 C64.084,74.938 60.859,71.713 60.859,67.734 C60.859,63.756 64.084,60.531 68.062,60.531 C72.041,60.531 75.266,63.756 75.266,67.734 C75.266,71.713 72.041,74.938 68.062,74.938 ZM68.062,44.937 C64.084,44.937 60.859,41.713 60.859,37.734 C60.859,33.756 64.084,30.531 68.062,30.531 C72.041,30.531 75.266,33.756 75.266,37.734 C75.266,41.713 72.041,44.937 68.062,44.937 ZM68.062,14.938 C64.084,14.938 60.859,11.713 60.859,7.734 C60.859,3.756 64.084,0.531 68.062,0.531 C72.041,0.531 75.266,3.756 75.266,7.734 C75.266,11.713 72.041,14.938 68.062,14.938 ZM38.063,104.938 C34.084,104.938 30.859,101.713 30.859,97.734 C30.859,93.756 34.084,90.531 38.063,90.531 C42.041,90.531 45.266,93.756 45.266,97.734 C45.266,101.713 42.041,104.938 38.063,104.938 ZM38.063,74.938 C34.084,74.938 30.859,71.713 30.859,67.734 C30.859,63.756 34.084,60.531 38.063,60.531 C42.041,60.531 45.266,63.756 45.266,67.734 C45.266,71.713 42.041,74.938 38.063,74.938 ZM38.063,44.937 C34.084,44.937 30.859,41.713 30.859,37.734 C30.859,33.756 34.084,30.531 38.063,30.531 C42.041,30.531 45.266,33.756 45.266,37.734 C45.266,41.713 42.041,44.937 38.063,44.937 ZM38.063,14.938 C34.084,14.938 30.859,11.713 30.859,7.734 C30.859,3.756 34.084,0.531 38.063,0.531 C42.041,0.531 45.266,3.756 45.266,7.734 C45.266,11.713 42.041,14.938 38.063,14.938 ZM8.062,104.938 C4.084,104.938 0.859,101.713 0.859,97.734 C0.859,93.756 4.084,90.531 8.062,90.531 C12.041,90.531 15.266,93.756 15.266,97.734 C15.266,101.713 12.041,104.938 8.062,104.938 ZM8.062,74.938 C4.084,74.938 0.859,71.713 0.859,67.734 C0.859,63.756 4.084,60.531 8.062,60.531 C12.041,60.531 15.266,63.756 15.266,67.734 C15.266,71.713 12.041,74.938 8.062,74.938 ZM8.062,44.937 C4.084,44.937 0.859,41.713 0.859,37.734 C0.859,33.756 4.084,30.531 8.062,30.531 C12.041,30.531 15.266,33.756 15.266,37.734 C15.266,41.713 12.041,44.937 8.062,44.937 ZM8.062,14.938 C4.084,14.938 0.859,11.713 0.859,7.734 C0.859,3.756 4.084,0.531 8.062,0.531 C12.041,0.531 15.266,3.756 15.266,7.734 C15.266,11.713 12.041,14.938 8.062,14.938 ZM98.063,90.531 C102.041,90.531 105.266,93.756 105.266,97.734 C105.266,101.713 102.041,104.938 98.063,104.938 C94.084,104.938 90.859,101.713 90.859,97.734 C90.859,93.756 94.084,90.531 98.063,90.531 Z"/>
</svg>