<svg
 xmlns="http://www.w3.org/2000/svg"
 xmlns:xlink="http://www.w3.org/1999/xlink"
 width="80px" height="77px">
<path fill-rule="evenodd"  opacity="0.6" fill="rgb(33, 51, 73)"
 d="M62.394,38.541 C76.983,38.541 83.282,44.453 76.463,51.748 C66.225,62.701 26.917,76.493 26.917,76.493 C26.917,76.493 13.395,62.701 23.633,51.748 C30.452,44.453 47.806,38.541 62.394,38.541 ZM56.699,44.634 C64.562,44.634 67.957,47.821 64.282,51.753 C60.607,55.684 51.253,58.872 43.390,58.872 C35.526,58.872 32.131,55.684 35.806,51.753 C39.482,47.821 48.835,44.634 56.699,44.634 Z"/>
<path fill-rule="evenodd"  fill="rgb(255, 255, 255)"
 d="M27.398,6.219 C39.294,6.219 48.938,15.866 48.938,27.766 C48.938,39.666 39.294,49.312 27.398,49.312 C15.503,49.312 5.859,39.666 5.859,27.766 C5.859,15.866 15.503,6.219 27.398,6.219 Z"/>
<path fill-rule="evenodd"  fill="#ff007e"
 d="M26.898,21.516 C29.932,21.516 32.391,23.975 32.391,27.008 C32.391,30.041 29.932,32.500 26.898,32.500 C23.865,32.500 21.406,30.041 21.406,27.008 C21.406,23.975 23.865,21.516 26.898,21.516 Z"/>
<path fill-rule="evenodd"  fill="#ff007e"
 d="M26.911,0.581 C41.499,0.581 53.326,12.407 53.326,26.996 C53.326,48.902 26.911,76.486 26.911,76.486 C26.911,76.486 0.496,48.902 0.496,26.996 C0.496,12.407 12.322,0.581 26.911,0.581 ZM26.914,12.766 C34.780,12.766 41.156,19.142 41.156,27.008 C41.156,34.874 34.780,41.250 26.914,41.250 C19.048,41.250 12.672,34.874 12.672,27.008 C12.672,19.142 19.048,12.766 26.914,12.766 Z"/>
</svg>