<svg width="250" height="68" viewBox="0 0 250 68" fill="none" xmlns="http://www.w3.org/2000/svg"> <path d="M33.7832 10.9313V0L0 8.12606V20.3293C0 27.9748 1.56868 35.1116 4.65659 41.5418C7.15093 46.7425 10.6345 51.5051 15.0085 55.6812C22.6116 62.8957 30.5116 66.0755 31.3807 66.4146L33.7832 67.3544V57.1509L32.695 56.7058C32.0591 56.4585 26.3708 54.0489 20.8168 48.509C17.63 45.3293 15.1003 41.7256 13.2985 37.7756C11.0585 32.8929 9.92793 27.4449 9.92793 21.6012V16.2945L33.7832 10.9313Z" fill="#fff"></path> <path d="M0 8.12598V20.3292C0 27.9748 1.56868 35.1116 4.65659 41.5417C7.15093 46.7424 10.6345 51.505 15.0085 55.6811C22.6116 62.8956 30.5116 66.0754 31.3807 66.4146L33.7832 67.3544V57.1508L32.695 56.7057C32.0591 56.4584 26.3708 54.0488 20.8168 48.509C17.63 45.3292 15.1003 41.7255 13.2985 37.7755C11.0585 32.8928 9.92793 27.4448 9.92793 21.6011V16.2944L0 8.12598Z" fill="#fff"></path> <path d="M65.7864 43.7111V20.8733H45.7397V43.7111H51.2937V25.3956H60.2395V43.7111H65.7864Z" fill="#fff"></path> <path d="M85.7476 22.7671C84.0729 21.4245 81.5927 20.7744 78.1445 20.7744C75.106 20.7744 72.5622 20.9581 70.5554 21.2902V43.81H76.0458V36.8852L76.4627 36.9276C76.8725 36.9629 77.4025 36.9841 78.0243 36.9841C81.5433 36.9841 84.2567 36.115 86.1009 34.3697C87.5636 32.9847 88.3762 30.8931 88.3762 28.4906C88.3833 26.1871 87.4152 24.0884 85.7476 22.7671ZM78.0031 32.7727C77.2753 32.7727 76.7736 32.7374 76.3709 32.6738L76.0529 32.6173V25.1342L76.3638 25.0848C76.7312 25.007 77.4025 24.9222 78.4412 24.9222C81.2253 24.9222 82.8929 26.3213 82.8929 28.632C82.8858 31.1899 81.0133 32.7727 78.0031 32.7727Z" fill="#fff"></path> <path d="M250.001 32.1651C250.001 28.2504 248.545 25.1554 245.804 23.1911C243.387 21.4387 240.228 20.6614 235.6 20.6614C232.802 20.6614 230.11 20.831 228.032 21.1348V43.8383C229.926 44.0715 232.053 44.1846 234.378 44.1846C239.444 44.1846 243.309 43.1529 245.874 41.0967C248.008 39.3725 250.001 37.0902 250.001 32.1651ZM241.797 38.0087C240.37 39.3866 238.313 40.0933 235.699 40.0933C235.035 40.0933 234.378 40.0933 233.918 40.0297L233.6 39.9802V24.8869L233.897 24.8304C234.554 24.7244 235.317 24.6608 236.194 24.6608C238.653 24.6608 240.681 25.3462 242.037 26.6605C243.422 28.0031 244.115 29.911 244.101 32.3417C244.101 35.253 243.217 36.6732 241.797 38.0087Z" fill="#fff"></path> <path d="M223.206 25.3463V20.8311H207.774V43.6759H223.206V39.1465H213.335V34.4828H223.206V30.0029H213.335V25.3463H223.206Z" fill="#fff"></path> <path d="M145.379 43.6759V20.8311H138.638C138.299 21.3751 136.998 23.389 132.504 30.2008L132.193 30.6671L131.897 30.2008C127.374 23.389 126.095 21.3681 125.749 20.8311H119.008V43.6688H124.576V27.0634L125.233 28.0173C129.763 34.4616 131.006 36.313 131.338 36.8429H133.063C133.402 36.313 134.638 34.4616 139.161 28.0173L139.832 27.0634V43.6688H145.379V43.6759Z" fill="#fff"></path> <path d="M103.399 19.3118C96.3399 19.3118 90.5669 25.0636 90.5669 32.1509C90.5669 39.2312 96.3329 44.9972 103.399 44.9972C110.493 44.9972 116.245 39.2312 116.245 32.1509C116.238 25.0707 110.486 19.3118 103.399 19.3118ZM103.399 39.5068C99.3572 39.5068 96.0502 36.1998 96.0502 32.1509C96.0502 28.1091 99.3572 24.8022 103.399 24.8022C107.476 24.8022 110.769 28.102 110.769 32.1509C110.769 36.2069 107.469 39.5068 103.399 39.5068Z" fill="#fff"></path> <path d="M202.933 43.6759V20.8311H196.206C195.86 21.3751 194.567 23.389 190.066 30.2008L189.762 30.6671L189.451 30.2008C184.936 23.389 183.657 21.3681 183.318 20.8311H176.57V43.6688H182.131V27.0634L182.795 28.0173C187.331 34.4616 188.568 36.313 188.9 36.8429H190.617C190.956 36.313 192.193 34.4616 196.715 28.0173L197.379 27.0634V43.6688H202.933V43.6759Z" fill="#fff"></path> <path d="M160.96 19.3118C153.894 19.3118 148.135 25.0636 148.135 32.1509C148.135 39.2312 153.894 44.9972 160.96 44.9972C168.048 44.9972 173.799 39.2312 173.799 32.1509C173.807 25.0707 168.048 19.3118 160.96 19.3118ZM160.96 39.5068C156.926 39.5068 153.619 36.1998 153.619 32.1509C153.619 28.1091 156.926 24.8022 160.96 24.8022C165.016 24.8022 168.337 28.102 168.337 32.1509C168.337 36.2069 165.016 39.5068 160.96 39.5068Z" fill="#fff"></path> <path d="M33.7834 36.0796H26.1661V43.6969H33.7834V36.0796Z" fill="#fff"></path> <path d="M33.7834 20.8591H26.1661V28.4764H33.7834V20.8591Z" fill="#fff"></path> <path d="M26.1661 28.4694H18.5417V36.0937H26.1661V28.4694Z" fill="#fff"></path> <path d="M65.7861 43.7111V20.8734H45.7395V43.7111H51.2935V25.3957H60.2392V43.7111H65.7861Z" fill="#fff"></path> <path d="M85.748 22.7671C84.0733 21.4245 81.5931 20.7745 78.1448 20.7745C75.1064 20.7745 72.5626 20.9582 70.5558 21.2903V43.8101H76.0462V36.8853L76.4631 36.9277C76.8729 36.963 77.4029 36.9842 78.0247 36.9842C81.5436 36.9842 84.257 36.115 86.1013 34.3697C87.564 32.9847 88.3766 30.8932 88.3766 28.4907C88.3837 26.1871 87.4156 24.0885 85.748 22.7671ZM78.0035 32.7728C77.2757 32.7728 76.774 32.7374 76.3712 32.6738L76.0532 32.6173V25.1343L76.3641 25.0848C76.7316 25.0071 77.4029 24.9223 78.4416 24.9223C81.2257 24.9223 82.8933 26.3214 82.8933 28.632C82.8862 31.1899 81.0137 32.7728 78.0035 32.7728Z" fill="#fff"></path> <path d="M250 32.1651C250 28.2504 248.545 25.1555 245.803 23.1911C243.386 21.4387 240.228 20.6614 235.6 20.6614C232.801 20.6614 230.109 20.831 228.032 21.1348V43.8383C229.925 44.0715 232.052 44.1846 234.377 44.1846C239.444 44.1846 243.309 43.1529 245.874 41.0967C248.008 39.3725 250 37.0902 250 32.1651ZM241.797 38.0088C240.369 39.3867 238.313 40.0933 235.699 40.0933C235.034 40.0933 234.377 40.0933 233.918 40.0297L233.6 39.9802V24.887L233.897 24.8304C234.554 24.7244 235.317 24.6608 236.193 24.6608C238.652 24.6608 240.68 25.3463 242.037 26.6606C243.422 28.0031 244.114 29.911 244.1 32.3417C244.1 35.253 243.217 36.6733 241.797 38.0088Z" fill="#fff"></path> <path d="M223.206 25.3463V20.831H207.773V43.6758H223.206V39.1464H213.334V34.4828H223.206V30.0028H213.334V25.3463H223.206Z" fill="#fff"></path> <path d="M145.379 43.6758V20.831H138.638C138.299 21.3751 136.999 23.3889 132.505 30.2007L132.194 30.6671L131.897 30.2007C127.375 23.3889 126.096 21.368 125.749 20.831H119.008V43.6688H124.576V27.0633L125.234 28.0173C129.763 34.4616 131.007 36.3129 131.339 36.8429H133.063C133.402 36.3129 134.639 34.4616 139.161 28.0173L139.832 27.0633V43.6688H145.379V43.6758Z" fill="#fff"></path> <path d="M103.399 19.3118C96.3401 19.3118 90.5671 25.0636 90.5671 32.1509C90.5671 39.2312 96.3331 44.9972 103.399 44.9972C110.494 44.9972 116.245 39.2312 116.245 32.1509C116.238 25.0707 110.487 19.3118 103.399 19.3118ZM103.399 39.5068C99.3574 39.5068 96.0504 36.1998 96.0504 32.1509C96.0504 28.1091 99.3574 24.8022 103.399 24.8022C107.476 24.8022 110.769 28.102 110.769 32.1509C110.769 36.2069 107.469 39.5068 103.399 39.5068Z" fill="#fff"></path> <path d="M202.933 43.6758V20.831H196.206C195.86 21.3751 194.567 23.3889 190.065 30.2007L189.762 30.6671L189.451 30.2007C184.935 23.3889 183.656 21.368 183.317 20.831H176.569V43.6688H182.13V27.0633L182.794 28.0173C187.331 34.4616 188.567 36.3129 188.899 36.8429H190.617C190.956 36.3129 192.192 34.4616 196.715 28.0173L197.379 27.0633V43.6688H202.933V43.6758Z" fill="#fff"></path> <path d="M160.96 19.3118C153.894 19.3118 148.135 25.0636 148.135 32.1509C148.135 39.2312 153.894 44.9972 160.96 44.9972C168.047 44.9972 173.799 39.2312 173.799 32.1509C173.806 25.0707 168.047 19.3118 160.96 19.3118ZM160.96 39.5068C156.925 39.5068 153.618 36.1998 153.618 32.1509C153.618 28.1091 156.925 24.8022 160.96 24.8022C165.016 24.8022 168.337 28.102 168.337 32.1509C168.337 36.2069 165.016 39.5068 160.96 39.5068Z" fill="#fff"></path></svg>