<svg width="0" height="0" class="hidden">
  <symbol xmlns="http://www.w3.org/2000/svg" viewBox="0 0 18 18" id="ic_add">
    <path d="M17,11H11v6a1.5,1.5,0,0,1-3,0V11H2A1.5,1.5,0,0,1,2,8H8v-6a1.5,1.5,0,0,1,3,0V8h6a1.5,1.5,0,0,1,0,3Z" transform="translate(-0.5 -0.56)" fill-rule="evenodd" fill="currentColor"></path>
  </symbol>
  <symbol xmlns="http://www.w3.org/2000/svg" viewBox="0 0 27.23 48.4" id="ic_arr_hor">
    <path d="M26.75,26.79h0L5.54,48a3,3,0,0,1-4.25-4.24L20.37,24.69,1.27,5.6A3,3,0,0,1,5.52,1.36l21,21a2.11,2.11,0,0,1,.23.19A3,3,0,0,1,26.75,26.79Z" transform="translate(-0.4 -0.48)" fill-rule="evenodd" fill="currentColor"></path>
  </symbol>
  <symbol xmlns="http://www.w3.org/2000/svg" viewBox="0 0 48.4 27.23" id="ic_arr_ver">
    <path d="M48.3,5.11l-21,21a2.11,2.11,0,0,1-.19.23,3,3,0,0,1-4.24,0h0L1.65,5.13A3,3,0,0,1,5.9.89L25,20,44.06.87A3,3,0,0,1,48.3,5.11Z" transform="translate(-0.78 0.01)" fill-rule="evenodd" fill="currentColor"></path>
  </symbol>
  <symbol xmlns="http://www.w3.org/2000/svg" viewBox="0 0 20.56 11.37" id="ic_arrow_hor">
    <path d="M21,7H4.28l3.28,3.29L6.15,11.68.46,6h0L6.15.31,7.56,1.72,4.3,5H21Z" transform="translate(-0.46 -0.31)" fill-rule="evenodd" fill="currentColor"></path>
  </symbol>
  <symbol xmlns="http://www.w3.org/2000/svg" viewBox="0 0 48.4 48.4" id="ic_close">
    <path d="M47.91,5.6,28.82,24.69,47.89,43.76A3,3,0,0,1,43.65,48L24.59,29,5.54,48a3,3,0,0,1-4.25-4.24L20.37,24.69,1.27,5.6A3,3,0,0,1,5.52,1.36L24.59,20.43,43.67,1.36A3,3,0,0,1,47.91,5.6Z" transform="translate(-0.4 -0.48)" fill-rule="evenodd" fill="currentColor"></path>
  </symbol>
  <symbol xmlns="http://www.w3.org/2000/svg" viewBox="0 0 49.19 53.82" id="ic_move">
    <path d="M29.64,53.8c-.52-.11-1.05-.21-1.57-.35a10.44,10.44,0,0,1-4.75-2.76Q15.07,42.46,6.83,34.2a3.63,3.63,0,0,1-.2-5.11,3.72,3.72,0,0,1,1.11-.82,6.07,6.07,0,0,1,7.07.35c1.13.8,2.22,1.66,3.33,2.49l.58.41V12a4.75,4.75,0,0,1,2.66-4.54,4.65,4.65,0,0,1,6.67,3.75c.11,2.45.06,4.9.08,7.35v.7a4.76,4.76,0,0,1,6.45,1.89,4.51,4.51,0,0,1,.29.63A4.71,4.71,0,0,1,39,21.29,4.65,4.65,0,0,1,41.83,24a19.39,19.39,0,0,1,2.39-.59,4.62,4.62,0,0,1,4.88,4,13,13,0,0,1,.08,1.41c0,3.92,0,7.84,0,11.76a12.86,12.86,0,0,1-3.54,9.21A12.7,12.7,0,0,1,38,53.7a2.79,2.79,0,0,0-.39.1ZM21.12,22.65V33.9a1.19,1.19,0,0,1-1.19,1.19,1.23,1.23,0,0,1-.76-.26c-.33-.22-.64-.48-1-.72-1.59-1.19-3.16-2.38-4.75-3.56a3.79,3.79,0,0,0-4.41-.31c-1.15.69-1.31,1.55-.33,2.52q7,7,14,14c.88.88,1.74,1.78,2.66,2.62a7.46,7.46,0,0,0,4.87,2.06c2,.07,4,.06,6,.05A10.25,10.25,0,0,0,42,49.77a9.81,9.81,0,0,0,4.76-8c.18-4.53.07-9.07.06-13.61a2.28,2.28,0,0,0-2.19-2.38h-.08a2.37,2.37,0,0,0-2.37,2.37h0c0,.39,0,.77,0,1.16a1.17,1.17,0,0,1-1.22,1.13,1,1,0,0,1-.35-.07A1.29,1.29,0,0,1,39.81,29c0-1.19,0-2.38-.07-3.57a2.25,2.25,0,0,0-2.47-2,2.57,2.57,0,0,0-.4.08A2.35,2.35,0,0,0,35.14,26c0,1.1,0,2.21,0,3.31a1.11,1.11,0,0,1-1.44,1.1,1.17,1.17,0,0,1-.88-1.26c0-1.82,0-3.64,0-5.47a2.43,2.43,0,0,0-1.14-2.22,2.27,2.27,0,0,0-3.48,1.8c-.07,1.84,0,3.68,0,5.52a4.11,4.11,0,0,1-.07.78,1.05,1.05,0,0,1-1,.87,1.2,1.2,0,0,1-1.34-1.05,1.15,1.15,0,0,1,0-.37V12.14c0-.19,0-.38,0-.57A2.33,2.33,0,0,0,23.3,9.38a2,2,0,0,0-.43.07,2.28,2.28,0,0,0-1.74,2.27C21.11,15.36,21.12,19,21.12,22.65ZM4,7C5,7.94,5.78,8.7,6.53,9.53A1.81,1.81,0,0,1,7,10.63a1.12,1.12,0,0,1-1.18,1.06,1.16,1.16,0,0,1-.51-.15,2.63,2.63,0,0,1-.49-.39L.48,6.81A1.2,1.2,0,0,1,.24,5.13a1.89,1.89,0,0,1,.2-.2L4.9.47A1.23,1.23,0,0,1,6.32.09,1.18,1.18,0,0,1,7,1.62a1.23,1.23,0,0,1-.35.47C6,2.8,5.24,3.48,4.54,4.17l-.42.45.62,0h10a3.44,3.44,0,0,1,.78.08,1.15,1.15,0,0,1,.86,1.37,1.17,1.17,0,0,1-.74.83,3,3,0,0,1-.78.1H4ZM42.68,4.51c-.81-.8-1.63-1.58-2.42-2.4A1.17,1.17,0,0,1,40.08.44a1.26,1.26,0,0,1,.2-.2,1.09,1.09,0,0,1,1.49.08C43.38,1.88,45,3.46,46.53,5.06a1.13,1.13,0,0,1,0,1.6l-.06,0Q44.19,9,41.86,11.31a1.18,1.18,0,0,1-1.66.09,1.16,1.16,0,0,1-.09-1.66l.11-.11C41,8.79,41.88,8,42.84,7h-11a1.23,1.23,0,0,1-1.41-1s0-.09,0-.14a1.11,1.11,0,0,1,.9-1.17,3.63,3.63,0,0,1,.73-.08H42.63Z" transform="translate(0 0.02)" fill="currentColor" fill-rule="evenodd"></path>
  </symbol>
  <symbol xmlns="http://www.w3.org/2000/svg" viewBox="0 0 13.36 19.19" id="ic_location">
    <path d="M6.91.94a6.68,6.68,0,0,1,6.68,6.67c0,5.54-6.68,12.52-6.68,12.52S.23,13.15.23,7.61A6.68,6.68,0,0,1,6.91.94ZM6.91,4a3.6,3.6,0,1,1-3.6,3.6A3.6,3.6,0,0,1,6.91,4Z" transform="translate(-0.23 -0.94)" fill-rule="evenodd" fill="currentColor"></path>
  </symbol>
  <symbol xmlns="http://www.w3.org/2000/svg" viewBox="0 0 74.45 51.84" id="ic_success">
    <path d="M74.07,7.31,30.23,51.15a3.91,3.91,0,0,1-6.07-.51L2,28.44a4,4,0,0,1,5.66-5.65L27.45,42.62l41-41a4,4,0,0,1,5.66,5.66Z" transform="translate(-0.79 -0.48)" fill="currentColor" fill-rule="evenodd"></path>
  </symbol>
  <symbol xmlns="http://www.w3.org/2000/svg" viewBox="0 0 60.9 48.96" id="ic_camera">
    <path d="M0,42.65V14.23a.71.71,0,0,0,.1-.14A7.35,7.35,0,0,1,7.64,7.94c2.59,0,5.18,0,7.78,0h.67c0-.29,0-.5,0-.72C16.21,2.8,19.33,0,23.76,0S32.9,0,37.48,0a7,7,0,0,1,7,5.14,26.23,26.23,0,0,1,.41,2.8h.59c2.66,0,5.37,0,8,0a7.32,7.32,0,0,1,7.42,7.22v.24c0,8.83,0,17.47,0,26.29a7.28,7.28,0,0,1-5.34,7L54.49,49H6.43a.85.85,0,0,0-.26-.11,6.94,6.94,0,0,1-5.1-3.47A19.14,19.14,0,0,1,0,42.65ZM30.46,13.77a13.71,13.71,0,1,0,.09,0ZM30.4,34.85a7.32,7.32,0,1,1,7.36-7.29,7.32,7.32,0,0,1-7.36,7.29Z" transform="translate(-0.01 0.01)" fill="currentColor" fill-rule="evenodd"></path>
  </symbol>
  <symbol xmlns="http://www.w3.org/2000/svg" viewBox="0 0 82.92 72.35" id="ic_id_card">
    <path d="M9.33,72.33A9.85,9.85,0,0,1,0,63Q0,42,0,21C0,14.56,4.09,10.5,10.62,10.4c4.54-.07,14.69,0,15.32.09,0,1.82-.08,3.36,0,5a4.94,4.94,0,0,0,5,4.86H51.83A4.93,4.93,0,0,0,57,15.67v-.33c0-1.68,0-3.19,0-4.75,6,0,12-.27,17.74.09,4.52.27,8,4.64,8.18,9.16.06,1.62.05,41.86,0,43.36a9.76,9.76,0,0,1-9.42,9.13C70.38,72.37,14.18,72.38,9.33,72.33Zm21.08-24a.31.31,0,0,0-.38-.24.32.32,0,1,0,.38.41c.34-.45.71-.88,1.05-1.33a11.9,11.9,0,0,0,1.9-10.4,7.63,7.63,0,0,0-8.66-5.62,8,8,0,0,0-6.77,7.67,12.36,12.36,0,0,0,3.59,9.88c-1.65.47-3.12.77-4.49,1.3a25.1,25.1,0,0,0-4,2c-3.07,1.9-3.17,4.25-2.63,7.42a3.31,3.31,0,0,0,3.4,2.75c8,0,16,0,24,0A4.06,4.06,0,0,0,40.22,61c2.43-2.25,1.9-6.81-1.3-8.8-2.55-1.59-5.51-2.55-8.51-3.89Zm39.52-1.71c1.88,0,2.76-.94,2.73-2.61s-.94-2.56-2.79-2.57c-5,0-10.07,0-15.11,0a2.61,2.61,0,0,0-2.89,2.3,1.94,1.94,0,0,0,0,.24c0,1.6,1.1,2.64,3,2.66,2.46,0,12.53,0,15.11,0Zm0-11.13c1.88,0,2.76-.93,2.73-2.61s-.94-2.56-2.79-2.57q-7.56-.06-15.11,0a2.62,2.62,0,0,0-2.89,2.3,2.11,2.11,0,0,0,0,.25c0,1.59,1.1,2.63,3,2.65,2.46,0,12.53,0,15.11,0ZM54.65,51.9c-1.7,0-2.69.74-2.76,2.38a2.36,2.36,0,0,0,2,2.68,2.07,2.07,0,0,0,.5,0c5.33,0,10.68,0,16-.09,1.6,0,2.33-1.07,2.25-2.64a2.22,2.22,0,0,0-2.06-2.36,2.64,2.64,0,0,0-.49,0c-2.52,0-12.83.05-15.46,0Zm-21-36.51c-1.69,0-2.53-.73-2.56-2.28-.07-3.52,0-7.13,0-10.65C31.15.83,32,0,33.74,0,39,.07,44.17.06,49.39,0c1.79,0,2.46.89,2.45,2.56,0,3.4,0,6.88,0,10.27,0,1.67-.7,2.52-2.5,2.53-15.66,0,0,0-15.65,0Z" transform="translate(0 -0.01)" fill="currentColor" fill-rule="evenodd"></path>
  </symbol>
  <symbol xmlns="http://www.w3.org/2000/svg" viewBox="0 0 56.98 74.05" id="ic_pdf">
    <path d="M0,67.23V6.84a3.09,3.09,0,0,0,.14-.32A7.88,7.88,0,0,1,5.53.39C6,.24,6.39.14,6.83,0H36.21a.75.75,0,0,0,.25.13,8.08,8.08,0,0,1,4.22,2.23c1,1,2,1.93,3.06,2.9l10.54,10a8,8,0,0,1,2.69,6c0,15.1,0,29.86,0,45a7.94,7.94,0,0,1-7.84,7.88c-13.64,0-27.63,0-41.27,0A7.93,7.93,0,0,1,.29,68.18C.2,67.86.09,67.54,0,67.23ZM52.62,21.8H39.55A5,5,0,0,1,34.32,17V4.37H8.58c-2.8,0-4.23,1.43-4.23,4.25V65.44c0,2.82,1.43,4.26,4.23,4.26H48.33c2.86,0,4.28-1.42,4.28-4.27V21.8Zm-2.4-4.35L38.68,6.52V16.57a.82.82,0,0,0,.76.89.89.89,0,0,0,.23,0H50.22ZM16.61,58a5.27,5.27,0,0,0,3.84-1.35A4.92,4.92,0,0,0,21.83,53a5.2,5.2,0,0,0-1.4-3.79,4.93,4.93,0,0,0-3.75-1.46H11.27V63.61h3.2V58Zm-2.13-7.61h2.23a1.63,1.63,0,0,1,1.37.71A3.09,3.09,0,0,1,18.59,53a2.58,2.58,0,0,1-.5,1.74,1.72,1.72,0,0,1-1.41.6h-2.2V50.42Zm13.6,13.19a5.92,5.92,0,0,0,4.55-1.78,7,7,0,0,0,1.65-4.91V54.35a7,7,0,0,0-1.69-4.84,5.76,5.76,0,0,0-4.43-1.76H24V63.61Zm.26-13.19a2.49,2.49,0,0,1,2.11.92,5.56,5.56,0,0,1,.62,3.1v2.75a5.05,5.05,0,0,1-.68,2.92,2.7,2.7,0,0,1-2.26.84h-1V50.42Zm16.42,4.06h-5V50.42h5.58V47.75H36.58V63.61h3.2V57.14h5V54.48Z" transform="translate(0 -0.01)" fill-rule="evenodd" fill="currentColor"></path>
  </symbol>
  <symbol xmlns="http://www.w3.org/2000/svg" viewBox="0 0 70.47 58.83" id="ic_telegram">
    <path d="M0,26.6a6.2,6.2,0,0,1,3.45-2.4Q34.51,12.2,65.57.4A6,6,0,0,1,66.88,0a3,3,0,0,1,3.54,2.32,2.9,2.9,0,0,1,0,.88,21,21,0,0,1-.58,4.1q-3.39,16-6.84,32.1-1.69,8-3.42,15.9l-.06.3c-1.09,4-4,3.6-6.09,2.1C48.36,54,43.29,50.2,38.2,46.5a2.92,2.92,0,0,1-.59-.4c-.16.1-.32.3-.46.4L29.27,54a3.92,3.92,0,0,1-2.77,1.1l.27-4.2c.22-3,.43-6,.65-9a5.62,5.62,0,0,0,.08-1c-.26-1.8.8-2.8,2-3.9,9.3-8.3,18.56-16.6,27.83-25a1.13,1.13,0,0,0,.44-.4,3.4,3.4,0,0,0,.31-.8,3.45,3.45,0,0,0-.87-.3,8.86,8.86,0,0,0-1.69.7L19.11,34a1.35,1.35,0,0,1-1.07.2L2.58,29.4A4.46,4.46,0,0,1,0,27.6v-1Z" transform="translate(-0.01 0.06)" fill="currentColor" fill-rule="evenodd"></path>
  </symbol>
  <symbol xmlns="http://www.w3.org/2000/svg" viewBox="0 0 82.49 47" id="ic_vk">
    <path d="M82.5,3.4V5a20.3,20.3,0,0,1-1.56,3.5c-2.23,3.4-4.56,6.7-6.87,10-1.47,2.1-3.06,4.1-4.46,6.3a3.21,3.21,0,0,0,.48,4.2,22.2,22.2,0,0,0,1.66,1.7C74,33,76.3,35.1,78.44,37.5c1.74,1.9,3.47,3.8,4.06,6.5v.8a2.88,2.88,0,0,1-2.37,1.9c-.68.1-1.38.1-2.08.2-3.57,0-7.14.1-10.72.1H66.14a10.19,10.19,0,0,1-5.62-3.1c-1.75-1.8-3.39-3.8-5.15-5.6A18,18,0,0,0,53,36.4a1.88,1.88,0,0,0-2.64.36l0,0a6,6,0,0,0-1.5,2.6,40.6,40.6,0,0,0-.66,4.9,2.37,2.37,0,0,1-2.32,2.4,41.53,41.53,0,0,1-6.11.1,20,20,0,0,1-4.23-.4c-5.31-.9-9.69-3.8-13.74-7.1-3.57-3-6.13-6.9-8.76-10.6A139,139,0,0,1,.56,6C-.78,3,.43,2.1,3.06,2.1H13.54c2.25,0,3.17.7,4.15,2.7,2.09,4.3,4.24,8.6,6.46,12.8a13.26,13.26,0,0,0,3.77,4.7c1.7,1.3,3,1,3.64-1a21.82,21.82,0,0,0,.73-4,31.86,31.86,0,0,0-.43-10.4,4.25,4.25,0,0,0-3.31-3.3c-.39-.1-.78-.2-1.33-.3a2.93,2.93,0,0,1,.53-.9A7.89,7.89,0,0,1,30.36.8,22.2,22.2,0,0,1,34.8.1,52.09,52.09,0,0,1,45.24.5,3.15,3.15,0,0,1,48.05,3a18.29,18.29,0,0,1,.34,3.3c0,3.9-.21,7.8-.22,11.7a10.4,10.4,0,0,0,.57,3.5c.55,1.6,1.91,1.8,3.09.7a30.2,30.2,0,0,0,2.88-3.1,65.2,65.2,0,0,0,7.8-14.2c1-2.5,1.5-2.7,3.9-2.7,4.33.1,8.65,0,13-.1A3.7,3.7,0,0,1,82.5,3.4Z" transform="translate(-0.01 0)" fill="currentColor" fill-rule="evenodd"></path>
  </symbol>
  <symbol xmlns="http://www.w3.org/2000/svg" viewBox="0 0 68.94 48.64" id="ic_youtube">
    <path d="M0,29V19.6c.05-.3.11-.6.13-.9C.39,15.1.62,11.5,1,8A7.52,7.52,0,0,1,7.38,1.6c3.25-.3,6.5-.7,9.76-1C21.66.3,26.19,0,30.71,0c5.47,0,10.95,0,16.41.3,4.81.2,9.6.8,14.39,1.3A7.51,7.51,0,0,1,68,8c.38,4.1.76,8.2.91,12.3A132.47,132.47,0,0,1,68,40.7,7.64,7.64,0,0,1,61.51,47c-3.25.4-6.5.8-9.76,1-4.34.3-8.69.6-13,.6q-8.44.15-16.88-.3C17,48.1,12.2,47.5,7.38,47a7.32,7.32,0,0,1-6.27-5.6C.69,38.7.52,35.9.27,33.2.15,31.8.08,30.4,0,29Zm45.92-4.7c-5.75-3.8-11.4-7.6-17.12-11.4V35.7C34.53,31.9,40.16,28.1,45.91,24.3Z" transform="translate(0.01 0)" fill="currentColor" fill-rule="evenodd"></path>
  </symbol>
</svg>